# xmcd CD database file generated by freedbAccess_ocx
#
# Track frame offsets:
#       150
#       22717
#       37442
#       51836
#       64641
#       77782
#       97997
#       117553
#       140226
#       156342
#       177339
#       192534
#       209006
#       231652
#       251701
#       267321
#       277120
#       291016
#
# Disc length: 4137 seconds
#
# Revision: 0
# Processed by: cddbd v1.5.2PL0 Copyright (c) Steve Scherf et al.
# Submitted via: CDnGo 2.00
#
DISCID=24102712
DTITLE=Ball and Chain and the Wreckers - Live at the Bayou
DYEAR=2005
DGENRE=Country
TTITLE0=Devil woman
TTITLE1=Crazy arms
TTITLE2=Graveyard Shift
TTITLE3=Mamou Two step
TTITLE4=Nothin Can Stop Me
TTITLE5=Big City
TTITLE6=I Love the Life
TTITLE7=Lovers Waltz
TTITLE8=Lovesick Blues
TTITLE9=Port Arthur Blues
TTITLE10=Fool about You
TTITLE11=Your Love By Heart
TTITLE12=Redemption Ground
TTITLE13=Little Head
TTITLE14=I Dont Drink in 3/4 Time
TTITLE15=I Cant Go Home Like This
TTITLE16=Love Love Love
TTITLE17=Little Darlin
EXTD=
EXTT0=
EXTT1=
EXTT2=
EXTT3=
EXTT4=
EXTT5=
EXTT6=
EXTT7=
EXTT8=
EXTT9=
EXTT10=
EXTT11=
EXTT12=
EXTT13=
EXTT14=
EXTT15=
EXTT16=
EXTT17=
PLAYORDER=
